<?xml version="1.0" encoding="utf-8"?>
<!-- Generator: Adobe Illustrator 26.0.2, SVG Export Plug-In . SVG Version: 6.00 Build 0)  -->
<svg version="1.1" id="Layer_1" xmlns="http://www.w3.org/2000/svg" xmlns:xlink="http://www.w3.org/1999/xlink" x="0px" y="0px"
	 width="300px" height="299.8px" viewBox="0 0 300 299.8" style="enable-background:new 0 0 300 299.8;" xml:space="preserve">
<style type="text/css">
	.st0{fill:#EA7826;}
	.st1{fill:#004583;}
	.st2{fill:#D66518;}
</style>
<g id="Layer_2_00000061456117208129054790000000499031745271927428_">
	<g id="Layer_1-2">
		<path class="st0" d="M150.4,3.4c7.9,0,15,3,20.6,8.6l34.1,34.1c11.2,11.2,11.2,29.6,0,41.2l0,0L171,121.3
			c-11.2,11.2-29.6,11.2-41.2,0L95.7,87.3c-11.2-11.2-11.2-29.6,0-41.2l0,0l34.1-34.5C135,6.4,142.5,3.4,150.4,3.4 M150.4,0
			c-8.6,0-16.9,3.4-22.8,9.4L93.4,43.4c-12.7,12.7-12.7,33,0,45.7l34.1,34.5c12.7,12.7,33,12.7,45.7,0l34.1-34.1
			c12.7-12.7,12.7-33,0-45.7L173.2,9.7C166.9,3.4,158.6,0,150.4,0z"/>
		<path class="st1" d="M233.1,86.1c7.9,0,15,3,20.6,8.6l34.1,34.1c11.2,11.2,11.2,29.6,0,41.2l0,0l-34.1,34.1
			c-11.2,11.2-29.6,11.2-41.2,0l0,0L178.5,170c-11.2-11.2-11.2-29.6,0-41.2l0,0l34.1-34.1C218.2,89.1,225.7,86.1,233.1,86.1
			 M233.1,83.1c-8.6,0-16.9,3.4-22.8,9.4l-34.1,34.1c-12.7,12.7-12.7,33,0,45.7l34.1,34.1c12.7,12.7,33,12.7,45.7,0l0,0l34.5-34.1
			c12.7-12.7,12.7-33,0-45.7L256,92.5C250,86.5,241.8,83.1,233.1,83.1L233.1,83.1z"/>
		<path class="st1" d="M66.5,86.9c7.9,0,15,3,20.6,8.6l34.1,34.1c11.2,11.2,11.2,29.6,0,41.2l-34.1,34.1
			c-11.2,11.2-29.6,11.2-41.2,0l0,0l-34.5-34.1c-11.2-11.2-11.2-29.6,0-41.2l34.1-34.1C51.5,89.9,59,86.9,66.5,86.9 M66.5,83.5
			c-8.6,0-16.9,3.4-22.8,9.4L9.6,127.3c-12.7,12.7-12.7,33,0,45.7l34.1,34.1c12.7,12.7,33,12.7,45.7,0l34.1-34.1
			c12.7-12.7,12.7-33,0-45.7L89.3,93.3C83.3,86.9,75.1,83.5,66.5,83.5z"/>
		<path class="st0" d="M149.6,169.7c7.9,0,15,3,20.6,8.6l34.1,34.1c11.2,11.2,11.2,29.6,0,41.2l0,0l-34.1,34.1
			c-11.2,11.2-29.6,11.2-41.2,0l0,0l-34.1-34.1c-11.2-11.2-11.2-29.6,0-41.2l0,0l34.1-34.1C134.6,173,142.1,169.7,149.6,169.7
			 M149.6,166.7c-8.6,0-16.9,3.4-22.8,9.4l-34.1,34.1c-12.7,12.7-12.7,33,0,45.7l0,0l34.1,34.5c12.7,12.7,33,12.7,45.7,0l34.1-34.5
			c12.7-12.7,12.7-33,0-45.7l0,0L172.5,176C166.5,170,158.2,166.7,149.6,166.7z"/>
		<path class="st1" d="M181.1,232.6c0-4.9-5.6-9-14.2-11.6c0.4-1.5,0.7-2.6,0.7-4.1c1.1-7.1,0-12-3.4-14.2
			c-3.4-2.2-8.6-0.4-14.2,4.5c-1.1,0.7-2.2,1.9-3,2.6c-1.1-1.1-2.2-1.9-3.4-2.6c-5.6-4.5-10.5-6-13.9-4.1c-3.4,1.9-4.5,7.1-3.4,14.2
			c0.4,1.5,0.4,2.6,0.7,4.1c-9,2.6-14.2,6.4-14.2,11.6c0,4.9,5.6,9,14.2,11.2c-0.4,1.5-0.7,2.6-0.7,4.1c-1.1,7.1,0,12,3.4,14.2
			c1.1,0.7,2.2,0.7,3.4,0.7c4.1-0.4,7.9-2.2,10.9-4.9c1.1-0.7,1.9-1.9,3.4-2.6c1.1,1.1,1.9,1.9,3,2.6c3,2.6,6.7,4.5,10.5,4.9
			c1.1,0,2.2-0.4,3.4-0.7c3.4-1.9,4.5-7.1,3.4-14.2c-0.4-1.1-0.4-2.6-0.7-4.1C175.5,241.6,181.1,237.5,181.1,232.6z M162.7,259.6
			c-2.2,1.5-6.4,0-10.9-3.7c-1.1-0.7-1.9-1.5-3-2.6c2.2-2.2,4.1-4.9,6-7.1c3-0.4,6.4-0.7,9.4-1.5c0.4,1.1,0.7,2.6,0.7,3.7
			C165.7,253.9,165,258.4,162.7,259.6z M129,248.3c0.4-1.1,0.4-2.6,0.7-3.7c3,0.7,6,1.1,9.4,1.5c1.9,2.6,3.7,4.9,6,7.5
			c-1.1,0.7-1.9,1.9-3,2.6c-4.5,3.7-8.6,5.2-10.9,3.7C129,258.4,128.3,253.9,129,248.3z M131.3,205.2c0.7-0.4,1.5-0.4,1.9-0.4
			c3.4,0.4,6.4,1.9,9,4.1c0.7,0.7,1.9,1.5,3,2.6c-2.2,2.2-4.1,4.9-6,7.5c-3,0.4-6.4,0.7-9.4,1.5c-0.4-1.1-0.7-2.6-0.7-3.7
			C128.3,210.9,129,206.7,131.3,205.2L131.3,205.2z M160.9,204.9c0.7,0,1.5,0,1.9,0.4c2.2,1.5,3.4,5.6,2.2,11.2
			c-0.4,1.1-0.4,2.6-0.7,3.7c-3-0.7-6-1.1-9-1.5c-1.9-2.6-3.7-4.9-6-7.5c1.1-0.7,1.9-1.9,3-2.6C154.5,206.7,157.5,205.2,160.9,204.9
			L160.9,204.9z M156.7,237.8c-1.1,1.9-2.2,3.7-3.4,5.2c-1.9,0-4.1,0.4-6.4,0.4s-4.1,0-6.4-0.4c-1.1-1.5-2.2-3.4-3.4-5.2
			c-1.1-1.9-2.2-3.7-3-5.6c0.7-1.9,1.9-3.7,3-5.6c1.1-1.9,2.2-3.7,3.4-5.2c2.2,0,4.1-0.4,6.4-0.4c2.2,0,4.1,0,6.4,0.4
			c1.1,1.9,2.2,3.4,3.4,5.2c1.1,1.9,1.9,3.7,3,5.6C158.6,234.5,157.9,236.3,156.7,237.8L156.7,237.8z M159,225.8
			c-0.7-1.1-1.5-2.2-2.2-3.7c2.2,0.4,4.5,0.7,6.4,1.1c-0.7,1.9-1.5,4.1-2.2,6C160.5,228.1,159.7,226.6,159,225.8z M147,218.7
			c-1.5,0-3,0-4.1,0c1.5-1.9,2.6-3.4,4.1-5.2c1.5,1.5,3,3.4,4.1,5.2C150,218.7,148.5,218.7,147,218.7z M135,225.8
			c-0.7,1.1-1.5,2.6-1.9,3.7c-0.7-1.9-1.5-4.1-2.2-6c1.9-0.4,4.1-0.7,6.4-1.1L135,225.8z M135,239.7c0.7,1.1,1.5,2.2,2.2,3.7
			c-2.2-0.4-4.5-0.7-6.4-1.1c0.7-2.2,1.5-4.1,2.2-6C133.5,237.1,134.3,238.2,135,239.7L135,239.7z M147,246.4c1.5,0,3,0,4.1,0
			c-1.5,1.9-2.6,3.4-4.1,5.2c-1.5-1.5-3-3.4-4.1-5.2C144.4,246.4,145.5,246.4,147,246.4L147,246.4z M159,239.7
			c0.7-1.1,1.5-2.6,1.9-3.7c0.7,2.2,1.5,4.1,2.2,6c-2.2,0.4-4.1,0.7-6.4,1.1C157.5,241.9,158.2,240.4,159,239.7L159,239.7z
			 M131.6,232.6c-1.1,3-2.2,5.6-3.4,8.6c-7.5-2.2-12.4-5.2-12.4-8.6c0-3.4,4.9-6.7,12.4-8.6C129,226.6,130.1,229.6,131.6,232.6z
			 M162.7,232.6c1.1-3,2.2-5.6,3.4-8.6c7.5,2.2,12.4,5.2,12.4,8.6c0,3.4-4.9,6.7-12.4,8.6C165,238.2,163.9,235.2,162.7,232.6z"/>
		<path class="st1" d="M204.3,150.6c0,3,1.1,6.4,2.6,9l0,0c1.9,2.6,5.2,4.1,8.6,4.1c3,0,5.6-0.7,7.5-2.6c2.2-2.2,3.4-4.9,3.7-7.9
			h3.7c-0.4,4.1-1.9,7.9-4.9,10.9c-2.6,2.2-6.4,3.7-10.1,3.4c-4.5,0.4-9-1.9-11.6-5.6c-2.6-3.7-3.7-8.2-3.4-12.7
			c0-4.5,1.1-8.6,3.7-12.4c2.6-3.7,6.7-6,11.6-6c4.5-0.4,9,1.9,11.6,5.6c1.1,1.9,2.2,3.7,2.6,6c0.7,2.6,0.7,5.2,0.7,7.9h-26.6V150.6
			z M227.2,146.8c0-3-1.1-6-3-8.2c-3.7-4.5-10.9-5.2-15.4-1.5c-0.4,0.4-1.1,0.7-1.5,1.5c-0.7,1.1-1.5,2.2-2.2,3.7
			c-0.4,1.5-0.7,3-1.1,4.5H227.2z"/>
		<path class="st1" d="M265,166.7h-4.5l-11.6-15l-5.6,7.5l-5.6,7.5h-4.5l13.9-18c-1.1-1.1-1.9-2.6-3-4.1l-3.4-4.5l-3.4-4.5
			c-1.1-1.5-2.2-2.6-3-4.1h4.5l10.1,13.9l5.2-6.7c1.9-2.2,3.4-4.5,5.2-6.7h4.5l-12.7,16.9L265,166.7z"/>
		<path class="st0" d="M95.7,130.7l-25.5-14.6c-1.5-0.7-3.4-0.7-4.9,0l-25.5,14.6c-1.5,0.7-2.2,2.6-2.2,4.1V164
			c0,1.9,0.7,3.4,2.2,4.1l6.7,3.7c1.9,1.1,3.7,1.5,5.6,1.5c3.4,0.4,6.7-2.2,7.1-5.6c0-0.7,0-1.1,0-1.9l0.4-29.2l-4.1-0.7v30
			c0,2.2-1.9,3.7-3.7,3.7l0,0c-1.1,0-1.9-0.4-3-0.7l-6.7-4.1H41v-29.6l0.4-1.1l25.8-15h1.5l25.1,14.6l0.7,0.7v30l-0.4,1.1l-25.8,15
			h-1.5l-6.4-4.1l-0.4,0.4c-0.7,0.4-1.9,1.1-2.6,1.5l-1.1,0l9,5.2c1.5,0.7,3.4,0.7,4.9,0l25.5-14.6c1.5-0.7,2.6-2.6,2.2-4.5v-29.6
			C97.9,133.3,97.2,131.8,95.7,130.7z"/>
		<path class="st0" d="M75.5,160.3c-7.1,0-8.6-1.9-9-5.2v-0.4l-4.1-0.4v0.4c0,4.1,2.2,9,12.7,9c4.5,0,12.4-1.1,12.4-8.2
			c0-5.2-3.7-6.4-11.2-7.5c-7.5-1.1-9-1.5-9-3.7c0-1.9,0.7-4.1,7.1-4.1c5.6,0,7.5,1.1,8.2,4.9v0.4l4.1,0.7v-0.7
			c-0.4-5.6-4.5-8.6-12.4-8.6c-7.1,0-11.2,3-11.2,7.9s4.1,6.7,10.9,7.5c7.9,0.7,9.4,1.9,9.4,4.1C83.7,158.8,81.1,160.3,75.5,160.3z"
			/>
		<path class="st0" d="M162,58.1c-3-13.1-9.4-16.9-10.9-19.1c-0.7-1.1-1.1-2.2-1.9-3.4c0,1.1-0.4,2.2-1.1,2.6
			c-7.1,6-10.9,14.6-11.2,23.6c0,9.4,4.1,18,11.6,23.6c1.1,0.4,2.2,0.4,3.4-0.4C160.1,78.7,164.2,68.2,162,58.1"/>
		<path class="st1" d="M150,77.9c0,2.6-0.4,4.9-1.1,7.5c0,0,0.4,3.4,0.7,6.7h1.1c0.4-2.6,0.7-4.9,1.1-7.1
			C150.4,83.9,150,80.9,150,77.9z"/>
		<path class="st2" d="M151.9,84.6L151.9,84.6c-1.5-0.7-1.9-4.1-1.9-7.1c0.4-4.9,0.4-9.7,0.4-15c0-2.6,0-24-0.7-27.3
			c0.4,1.1,1.1,2.2,1.5,3.4c1.5,2.6,7.9,6,10.9,19.1C163.9,68.2,160.1,78.7,151.9,84.6z"/>
	</g>
</g>
</svg>
